<svg width="17" height="18" viewBox="0 0 17 18" fill="none" xmlns="http://www.w3.org/2000/svg">
<path d="M13.6218 17.4999C12.881 17.4999 11.8403 17.2319 10.2819 16.3614C8.38681 15.2989 6.92101 14.318 5.03621 12.4385C3.21896 10.6227 2.33463 9.44714 1.09694 7.19538C-0.301288 4.65293 -0.0629357 3.32024 0.203503 2.75066C0.5208 2.06989 0.989154 1.66272 1.59452 1.25859C1.93837 1.03335 2.30224 0.840266 2.68153 0.681793C2.71949 0.665476 2.75478 0.649918 2.78629 0.635877C2.97416 0.551256 3.25882 0.423375 3.61938 0.559983C3.86001 0.650297 4.07483 0.835098 4.4111 1.16713C5.10073 1.84714 6.04313 3.3616 6.39079 4.10536C6.62421 4.60664 6.77869 4.93754 6.77907 5.30866C6.77907 5.74315 6.56045 6.07822 6.29515 6.43985C6.24543 6.50778 6.19609 6.57267 6.14827 6.63566C5.85944 7.01513 5.79605 7.12479 5.8378 7.3206C5.92244 7.71411 6.55362 8.88553 7.59091 9.92034C8.62819 10.9552 9.76606 11.5464 10.1612 11.6306C10.3654 11.6742 10.4773 11.6082 10.869 11.3092C10.9252 11.2663 10.9829 11.2219 11.0432 11.1775C11.4478 10.8766 11.7674 10.6637 12.1917 10.6637H12.194C12.5633 10.6637 12.8794 10.8239 13.4032 11.088C14.0864 11.4325 15.6467 12.3626 16.331 13.0529C16.6639 13.3883 16.8495 13.6023 16.9402 13.8425C17.0768 14.2042 16.9481 14.4876 16.8643 14.6774C16.8502 14.7089 16.8346 14.7434 16.8183 14.7817C16.6586 15.1603 16.4643 15.5233 16.238 15.8662C15.8346 16.4696 15.4258 16.9367 14.7434 17.2543C14.393 17.4201 14.0094 17.504 13.6218 17.4999Z" fill="#24738C"/>
</svg>
